<svg width="22" height="20" viewBox="0 0 22 20" fill="none" xmlns="http://www.w3.org/2000/svg">
<path d="M19 20H17V15H19V20ZM5 20H3V15H5V20ZM22 2V11C22 11.5304 21.7893 12.0391 21.4142 12.4142C21.0391 12.7893 20.5304 13 20 13H2C1.46957 13 0.960859 12.7893 0.585786 12.4142C0.210714 12.0391 0 11.5304 0 11V2C0 1.46957 0.210714 0.960859 0.585786 0.585786C0.960859 0.210714 1.46957 0 2 0H20C20.5304 0 21.0391 0.210714 21.4142 0.585786C21.7893 0.960859 22 1.46957 22 2ZM20 2H2V11H20V2ZM19 4H14V6H19V4ZM17 7H14V9H17V7ZM13 9H3L5.73 5.36L7.73 8.09L8.46 7.55L7.2 5.82L8.91 3.55L13 9Z" fill="white" fill-opacity="0.74"/>
</svg>
